<?xml version="1.0" encoding="utf-8"?>
<!-- Generator: Adobe Illustrator 22.1.0, SVG Export Plug-In . SVG Version: 6.00 Build 0)  -->
<svg version="1.1" id="Layer_1" xmlns="http://www.w3.org/2000/svg" xmlns:xlink="http://www.w3.org/1999/xlink" x="0px" y="0px"
	 viewBox="0 0 96 96" style="enable-background:new 0 0 96 96;" xml:space="preserve">
<title></title>
<path d="M94.24,37.76c-2.34-2.34-6.14-2.34-8.48,0c0,0,0,0,0,0l-2.61,2.61C79.55,23.83,64.92,12.03,48,12
	c-7.82,0.01-15.42,2.59-21.62,7.36c-2.64,2-3.16,5.76-1.16,8.4s5.76,3.16,8.4,1.16l0,0C37.74,25.75,42.8,24.02,48,24
	c10.32,0.04,19.45,6.68,22.67,16.48l-3.97-3.16c-2.59-2.07-6.36-1.65-8.43,0.94c-2.07,2.59-1.65,6.36,0.94,8.43
	c0,0,0.01,0.01,0.01,0.01l15.04,12c2.38,1.91,5.82,1.72,7.98-0.45l12-12C96.58,43.9,96.59,40.1,94.24,37.76
	C94.24,37.76,94.24,37.76,94.24,37.76z"/>
<path d="M62.38,67.08C58.26,70.25,53.2,71.98,48,72c-10.32-0.04-19.45-6.68-22.67-16.48l3.97,3.16c2.59,2.07,6.36,1.65,8.43-0.94
	c2.07-2.59,1.65-6.36-0.94-8.43c0,0-0.01-0.01-0.01-0.01l-15.04-12c-2.39-1.9-5.82-1.71-7.98,0.45l-12,12
	c-2.34,2.35-2.33,6.15,0.02,8.48c2.34,2.33,6.12,2.33,8.46,0l2.61-2.61C16.45,72.17,31.08,83.97,48,84
	c7.82-0.01,15.42-2.59,21.62-7.36c2.64-2,3.16-5.76,1.16-8.4S65.02,65.08,62.38,67.08z"/>
</svg>
