<?xml version="1.0" encoding="utf-8"?>
<!-- Generator: Adobe Illustrator 22.1.0, SVG Export Plug-In . SVG Version: 6.00 Build 0)  -->
<svg version="1.1" id="Layer_1" xmlns="http://www.w3.org/2000/svg" xmlns:xlink="http://www.w3.org/1999/xlink" x="0px" y="0px"
	 viewBox="0 0 500 500" style="enable-background:new 0 0 500 500;" xml:space="preserve">
<style type="text/css">
	.st0{fill:#010101;}
</style>
<path class="st0" d="M73.33,285.84c0,97.85,79.32,177.17,177.17,177.17c97.85,0,177.17-79.32,177.17-177.17
	c0-79.5-52.33-146.73-124.48-169.17l-0.09-0.09c-6.91-2.64-11.72-9.27-11.72-16.99c0-9.99,8.18-18.17,18.17-18.17h4.54
	c12.54,0,22.72-10.18,22.72-22.71c0-12.54-10.18-22.72-22.72-22.72H186.9c-12.54,0-22.71,10.18-22.71,22.72
	c0,12.54,10.18,22.71,22.71,22.71h4.54c10,0,18.17,8.18,18.17,18.17c0,7.91-5.09,14.63-12.09,17.18
	c-16.72,5.17-32.34,12.8-46.61,22.44l-16.72-16.73c-6.27-6.26-16.63-6.26-22.9,0l-24.17,24.18c-6.27,6.26-6.27,16.62,0,22.89
	l16.72,16.72C84.6,214.7,73.33,248.95,73.33,285.84z M227.79,176.82c0-12.54,10.18-22.71,22.71-22.71
	c12.54,0,22.71,10.18,22.71,22.71c0,12.54-10.18,22.72-22.71,22.72C237.96,199.53,227.79,189.35,227.79,176.82z M118.76,285.84
	c0-12.54,10.18-22.71,22.71-22.71s22.71,10.18,22.71,22.71c0,12.54-10.18,22.72-22.71,22.72S118.76,298.38,118.76,285.84z
	 M336.81,285.84c0-12.54,10.17-22.71,22.71-22.71c12.54,0,22.71,10.18,22.71,22.71c0,12.54-10.18,22.72-22.71,22.72
	C346.99,308.56,336.81,298.38,336.81,285.84z M227.79,394.87c0-12.54,10.18-22.71,22.71-22.71c12.54,0,22.71,10.17,22.71,22.71
	c0,12.54-10.18,22.71-22.71,22.71C237.96,417.58,227.79,407.41,227.79,394.87z M340.71,220.61l-73.68,73.69
	c-6.9,6.9-18.08,6.9-24.99,0c-6.9-6.91-6.9-18.09,0-24.98l73.68-73.69c6.9-6.9,18.08-6.9,24.98,0
	C347.62,202.53,347.62,213.71,340.71,220.61z"/>
</svg>
