<?xml version="1.0" encoding="utf-8"?>
<!-- Generator: Adobe Illustrator 22.1.0, SVG Export Plug-In . SVG Version: 6.00 Build 0)  -->
<svg version="1.1" id="Layer_1" xmlns="http://www.w3.org/2000/svg" xmlns:xlink="http://www.w3.org/1999/xlink" x="0px" y="0px"
	 viewBox="0 0 48 48" style="enable-background:new 0 0 48 48;" xml:space="preserve">
<path d="M36,18L36,18c0,5.59-3.83,10.27-9,11.61V40h6c0.55,0,1,0.45,1,1c0,0.55-0.45,1-1,1H15c-0.55,0-1-0.45-1-1c0-0.55,0.45-1,1-1
	h6V29.61c-5.17-1.33-9-6.02-9-11.61l0,0c-3.87,0-7-3.13-7-7V9c0-0.55,0.45-1,1-1h6V7c0-1.66-1.34-3-3-3l0,0C8.45,4,8,3.55,8,3
	s0.45-1,1-1l0,0l0,0h30l0,0l0,0c0.55,0,1,0.45,1,1s-0.45,1-1,1l0,0c-1.66,0-3,1.34-3,3l0,0v1h6c0.55,0,1,0.45,1,1v2
	C43,14.87,39.87,18,36,18z M23,40h2V29.95C24.67,29.98,24.34,30,24,30s-0.67-0.02-1-0.05V40z M7,10v1c0,2.76,2.24,5,5,5v-6H7z
	 M12.98,4C13.61,4.84,14,5.87,14,7l0,0v11c0,5.52,4.48,10,10,10c5.52,0,10-4.48,10-10V7l0,0l0,0c0-1.13,0.39-2.16,1.02-3H12.98z
	 M41,10h-5v6c2.76,0,5-2.24,5-5V10z M12,44h24c0.55,0,1,0.45,1,1c0,0.55-0.45,1-1,1H12c-0.55,0-1-0.45-1-1C11,44.45,11.45,44,12,44z
	"/>
</svg>
